<svg id="Capa_1" enable-background="new 0 0 512 512" height="512" viewBox="0 0 512 512" width="512" xmlns="http://www.w3.org/2000/svg"><g><path d="m256 22c-135.31 0-245 109.69-245 245 0 45.609 12.477 88.297 34.182 124.864l1.133-.052 11.457-24.061c.849-1.783.249-3.953-1.394-5.048l-9.5-6.333c-.454-.303-.759-.766-.857-1.303-.099-.538.021-1.079.34-1.524l11.9-16.662c.457-.638.712-1.408.738-2.227.477-14.908 12.54-26.585 27.465-26.585h65.152c8.948 12.224 21.106 21.421 35.192 26.613.333.123.68.185 1.03.185 1.313 0 2.463-.841 2.863-2.094l2.098-6.567c.399-1.249 1.549-2.088 2.861-2.088.484 0 .97.122 1.402.351l37.029 19.639c.43.229.916.35 1.406.35.489 0 .977-.122 1.409-.352l37.022-19.702c.434-.23.92-.353 1.406-.353 1.254 0 2.387.791 2.819 1.967l2.539 6.914c.269 1.185 1.268 1.986 2.419 1.986.288 0 .571-.05.845-.15 14.198-5.18 26.441-14.407 35.438-26.699h65.142c14.804 0 26.864 11.578 27.457 26.358.039 1.007.429 1.949 1.097 2.65l15.629 16.43c.422.439.619 1.035.545 1.635s-.412 1.129-.925 1.45l-9.444 5.902c-.923.578-1.559 1.481-1.789 2.545s-.026 2.149.574 3.056l16.263 24.55c.327.494.419 1.102.252 1.67-.168.568-.575 1.03-1.117 1.268l-18.664 8.162c-1.457.637-2.398 2.076-2.398 3.665v47.181l1 .468c53.771-44.941 87.984-112.5 87.984-188.059 0-135.31-109.69-245-245-245z" fill="#6c7fd8"/><path d="m392.513 170.027h-30.018l9.606 7.38c.581.446.866 1.146.762 1.871-.104.726-.575 1.316-1.259 1.581l-15.595 6.027v10.114h36.504c7.448 0 13.487-6.038 13.487-13.487 0-7.448-6.038-13.486-13.487-13.486z" fill="#8795de"/><g><path d="m373.155 0c-37.279 0-67.5 30.221-67.5 67.5 0 .058.004.114.004.172 15.115 10.489 26.484 25.954 31.745 43.898l.092.313 29.787 22.847c1.937.167 3.892.27 5.872.27 37.279 0 67.5-30.221 67.5-67.5s-30.221-67.5-67.5-67.5z" fill="#fed402"/><path d="m346 67.5c0-30.252 19.902-55.854 47.327-64.431-6.37-1.993-13.145-3.069-20.172-3.069-36.933 0-66.919 29.666-67.474 66.467 15.54 10.587 27.268 26.352 32.683 44.821l30.743 23.581c1.34.079 2.688.132 4.048.132 7.027 0 13.802-1.076 20.173-3.069-27.426-8.578-47.328-34.18-47.328-64.432z" fill="#fac600"/><g fill="#8795de"><path d="m385.557 62.027h-60.472c-7.448 0-13.487-6.038-13.487-13.487 0-7.448 6.038-13.487 13.487-13.487h7.831c7.448 0 13.486-6.038 13.486-13.487s-6.038-13.487-13.486-13.487h-92.666c-7.448 0-13.486 6.038-13.486 13.487s6.038 13.487 13.486 13.487h23.493c7.448 0 13.486 6.038 13.486 13.487 0 6.19-4.176 11.394-9.861 12.979l13.403 10.205 3.933-12.313c.268-.835 1.037-1.396 1.915-1.396.234 0 .466.042.689.123 16.2 5.919 29.954 16.863 39.437 30.861h58.811c7.448 0 13.487-6.038 13.487-13.487.001-7.447-6.037-13.485-13.486-13.485z"/><path d="m123.618 161.135c1.062-.815 1.643-2.1 1.555-3.435s-.832-2.532-1.991-3.201l-21.198-12.239c-.589-.339-.951-.923-.996-1.601-.044-.678.239-1.305.778-1.718l30.846-23.659.084-.341c2.311-9.367 6.228-18.087 11.458-25.86h-86.435c-7.448 0-13.486 6.038-13.486 13.487s6.038 13.487 13.486 13.487h23.493c7.448 0 13.486 6.038 13.486 13.487 0 7.448-6.038 13.487-13.486 13.487h-48.725c-7.448 0-13.487 6.038-13.487 13.487 0 7.446 6.038 13.484 13.487 13.484h79.592z"/></g></g><g><g fill="#bb5d4c"><path d="m434.779 392.095-16.263-24.55c-.932-1.407-.52-3.306.911-4.201l9.444-5.903c1.615-1.009 1.893-3.248.574-4.622l-15.628-16.43c-.515-.541-.793-1.255-.823-2.001-.609-15.19-13.116-27.318-28.455-27.318h-3.848v9.782c0 1.064-.454 2.081-1.246 2.79l-19.314 17.304c-1.215 1.088-1.912 2.648-1.912 4.279s.696 3.191 1.912 4.28l13.3 11.915c.792.71 1.246 1.727 1.246 2.791 0 1.063-.454 2.08-1.246 2.79l-13.3 11.916c-1.215 1.088-1.912 2.648-1.912 4.28s.697 3.191 1.912 4.28l19.314 17.303c.792.71 1.246 1.727 1.246 2.791v73.19l1 .555c11.032-6.609 21.509-14.05 31.327-22.256v-47.649c0-1.192.706-2.271 1.798-2.748l18.664-8.162c1.707-.747 2.328-2.853 1.299-4.406z"/><path d="m110.872 374.917-13.299-11.915c-.792-.71-1.247-1.727-1.247-2.79s.455-2.081 1.247-2.791l13.299-11.916c1.216-1.088 1.913-2.649 1.913-4.28s-.697-3.191-1.913-4.28l-19.313-17.303c-.792-.709-1.246-1.727-1.246-2.791v-9.782h-3.848c-15.418 0-27.975 12.253-28.464 27.553-.019.602-.202 1.188-.552 1.678l-11.901 16.662c-.985 1.379-.633 3.3.777 4.24l9.5 6.333c1.241.827 1.686 2.44 1.045 3.786l-11.687 24.542c12.047 20.296 26.941 38.702 44.13 54.672l1-.439v-42.525c0-1.063.454-2.081 1.246-2.791l19.313-17.303c1.216-1.088 1.913-2.648 1.913-4.28s-.697-3.191-1.913-4.28z"/></g><path d="m380.112 320.388c1.005-.9 1.579-2.186 1.579-3.535v-14.876c0-2.621-2.125-4.746-4.746-4.746h-52.031c-8.514 16.616-23.063 29.948-41.298 36.6-.163.06-.331.089-.501.089-.7 0-1.306-.499-1.439-1.185l-.016-.079-2.564-6.981c-.576-1.568-2.087-2.622-3.758-2.622-.649 0-1.298.163-1.876.47l-37.022 19.702c-.288.153-.613.234-.939.234s-.65-.081-.938-.233l-37.029-19.639c-.577-.306-1.225-.468-1.871-.468-1.749 0-3.281 1.119-3.813 2.784l-2.098 6.566c-.268.836-1.035 1.398-1.911 1.398-.232 0-.463-.042-.685-.123-18.116-6.677-32.575-19.973-41.056-36.515h-52.041c-2.621 0-4.746 2.125-4.746 4.746v14.876c0 1.349.574 2.635 1.579 3.535l19.314 17.303c2.106 1.886 2.106 5.184 0 7.07l-13.3 11.915c-2.106 1.886-2.106 5.184 0 7.07l13.3 11.915c2.106 1.886 2.106 5.184 0 7.07l-19.314 17.303c-1.005.9-1.579 2.186-1.579 3.535v42.962c43.726 40.621 102.3 65.471 166.687 65.471 45.952 0 88.942-12.663 125.692-34.671v-73.757c0-1.349-.574-2.635-1.579-3.535l-19.314-17.303c-2.106-1.886-2.106-5.184 0-7.07l13.3-11.915c2.106-1.886 2.106-5.184 0-7.07l-13.3-11.915c-2.106-1.886-2.106-5.184 0-7.07z" fill="#eadeff"/><path d="m131 403.571c0-1.349.574-2.635 1.579-3.535l19.314-17.303c2.106-1.886 2.106-5.184 0-7.07l-13.3-11.915c-2.106-1.886-2.106-5.184 0-7.07l13.3-11.915c2.106-1.886 2.106-5.184 0-7.07l-19.314-17.303c-1.005-.9-1.579-2.186-1.579-3.535v-14.876c0-2.621 2.125-4.746 4.746-4.746h-41.687c-2.621 0-4.746 2.125-4.746 4.746v14.876c0 1.349.574 2.635 1.579 3.535l19.314 17.303c2.106 1.886 2.106 5.184 0 7.07l-13.3 11.915c-2.106 1.886-2.106 5.184 0 7.07l13.3 11.915c2.106 1.886 2.106 5.184 0 7.07l-19.314 17.303c-1.005.9-1.579 2.186-1.579 3.535v42.962c12.712 11.809 26.687 22.273 41.687 31.193z" fill="#d3c4f7"/><path d="m283.616 333.831c-.163.06-.331.089-.501.089-.7 0-1.306-.499-1.439-1.185l-.016-.079-2.564-6.981c-.576-1.568-2.087-2.622-3.758-2.622-.649 0-1.298.163-1.876.47l-37.022 19.702c-.288.153-.613.234-.939.234s-.65-.081-.938-.233l-37.029-19.639c-.577-.306-1.225-.468-1.871-.468-1.749 0-3.281 1.119-3.813 2.784l-2.098 6.566c-.268.836-1.035 1.398-1.911 1.398-.232 0-.463-.042-.685-.123-1.636-.603-3.238-1.269-4.813-1.978v168.957c23.249 7.322 47.99 11.277 73.657 11.277 11.076 0 21.975-.749 32.662-2.172v-178.057c-1.65.742-3.329 1.433-5.046 2.06z" fill="#a44f3e"/><path d="m351.53 160.342c-1.695-1.302-1.523-3.908.328-4.977l21.198-12.239c1.852-1.069 2.022-3.677.326-4.978l-35.018-26.86c-7.353-25.079-26.336-45.183-50.712-54.089-1.605-.586-3.379.281-3.899 1.908l-3.503 10.963-41.714-31.76c-1.792-1.364-4.275-1.362-6.064.005l-41.567 31.755-4.005-10.902c-.312-1.598-1.981-2.54-3.51-1.982-25.49 9.299-45.085 30.843-51.665 57.516l-30.567 23.446c-1.697 1.301-1.526 3.909.326 4.979l21.198 12.239c1.851 1.069 2.023 3.675.328 4.977l-21.181 16.271c-1.856 1.426-1.437 4.334.746 5.177l11.553 4.465.867 1.076c0-2.065 1.681-3.746 3.746-3.746h15.036c1.105 0 2 .895 2 2v54.307l1 2.478v20.549c0 32.939 20.831 61.001 50.033 71.764 1.602.59 3.375-.283 3.894-1.909l2.098-6.566c.569-1.781 2.611-2.614 4.263-1.737l37.03 19.639c.88.467 1.935.466 2.815-.002l37.023-19.702c1.606-.855 3.598-.094 4.225 1.614l2.537 6.907c.29 1.485 1.842 2.362 3.264 1.843 29.326-10.698 50.269-38.823 50.269-71.85v-20.551l1-2.405v-54.38c0-1.105.895-2 2-2h15.036c2.065 0 3.746 1.681 3.746 3.746l1 .239 14.955-5.78c2.183-.844 2.602-3.751.746-5.177z" fill="#bb5d4c"/><path d="m351.53 160.342c-1.695-1.302-1.523-3.908.328-4.977l21.198-12.239c1.852-1.069 2.022-3.677.326-4.978l-35.018-26.86c-7.353-25.079-26.336-45.183-50.712-54.089-1.605-.586-3.379.281-3.899 1.908l-3.503 10.963-41.714-31.76c-1.792-1.364-4.275-1.362-6.064.005l-41.567 31.755-4.005-10.902c-.312-1.598-1.981-2.54-3.51-1.982-25.49 9.299-45.085 30.843-51.665 57.516l-30.567 23.446c-1.697 1.301-1.526 3.909.326 4.979l21.198 12.239c1.851 1.069 2.023 3.675.328 4.977l-21.181 16.271c-1.856 1.426-1.437 4.334.746 5.177l11.553 4.465.867 1.076c0-2.065 1.681-3.746 3.746-3.746h15.036c1.105 0 2 .895 2 2v54.307l1 2.478v20.549c0 32.939 20.831 61.001 50.033 71.764 1.602.59 3.375-.283 3.894-1.909l2.098-6.566c.569-1.781 2.611-2.614 4.263-1.737l37.03 19.639c.88.467 1.935.466 2.815-.002l37.023-19.702c1.606-.855 3.598-.094 4.225 1.614l2.537 6.907c.29 1.485 1.842 2.362 3.264 1.843 29.326-10.698 50.269-38.823 50.269-71.85v-20.551l1-2.405v-54.38c0-1.105.895-2 2-2h15.036c2.065 0 3.746 1.681 3.746 3.746l1 .239 14.955-5.78c2.183-.844 2.602-3.751.746-5.177z" fill="#bb5d4c"/><path d="m172 285.648c-12.926-11.712-21.046-28.631-21.046-47.448v-69.615c0-16.775 8.329-31.691 21.046-40.845v-40.74c0-10.128 2.552-19.685 7.031-28.076-23.352 10.073-41.107 30.646-47.307 55.777l-30.567 23.446c-1.697 1.301-1.526 3.909.326 4.979l21.198 12.239c1.851 1.069 2.023 3.675.328 4.977l-21.181 16.271c-1.856 1.426-1.437 4.334.746 5.177l11.553 4.465.867 1.076c0-2.065 1.681-3.746 3.746-3.746h15.036c1.104 0 2 .895 2 2v54.307l1 2.478v20.549c0 31.348 18.873 58.266 45.867 70.072-6.7-9.68-10.643-21.395-10.643-33.991z" fill="#a44f3e"/><g fill="#f6a96c"><path d="m352.264 182.585h-15.036c-1.657 0-3 1.343-3 3v56.785c12.655-.436 22.783-10.826 22.783-23.587v-31.451c-.001-2.622-2.126-4.747-4.747-4.747z"/><path d="m133.776 182.585h-15.036c-2.621 0-4.746 2.125-4.746 4.746v31.451c0 12.762 10.127 23.152 22.783 23.587v-56.785c-.001-1.656-1.344-2.999-3.001-2.999z"/></g><path d="m288.662 451.576-10.711 8.285c-.865.669-2.106.519-2.787-.335l-17.653-22.143c-.801-1.004-2.327-1.004-3.128 0l-17.317 21.722c-.801 1.004-2.327 1.004-3.128 0l-17.317-21.722c-.801-1.004-2.327-1.004-3.128 0l-17.653 22.143c-.681.855-1.923 1.004-2.787.335l-10.711-8.284v10.957l10.706 13.43c.801 1.004 2.327 1.004 3.128 0l17.317-21.722c.801-1.004 2.327-1.004 3.128 0l17.317 21.722c.801 1.004 2.327 1.004 3.128 0l17.317-21.722c.801-1.004 2.327-1.004 3.128 0l17.317 21.722c.801 1.004 2.327 1.004 3.128 0l10.706-13.43z" fill="#bb5d4c"/><path d="m269.736 118.271c-13.194 0-25.237 5.155-34.234 13.54-8.998-8.385-21.04-13.54-34.234-13.54-27.673 0-50.314 22.641-50.314 50.314v69.615c0 35.354 28.66 64.014 64.014 64.014h41.068c35.354 0 64.014-28.66 64.014-64.014v-69.615c0-27.673-22.641-50.314-50.314-50.314z" fill="#ffbd86"/><path d="m269.736 118.271c-13.194 0-25.237 5.155-34.234 13.54-8.998-8.385-21.04-13.54-34.234-13.54-27.673 0-50.314 22.641-50.314 50.314v69.615c0 35.354 28.66 64.014 64.014 64.014h41.068c35.354 0 64.014-28.66 64.014-64.014v-69.615c0-27.673-22.641-50.314-50.314-50.314z" fill="#ffbd86"/><g><path d="m182 238.2v-69.615c0-22.257 14.651-41.249 34.782-47.834-4.893-1.601-10.104-2.48-15.514-2.48-27.673 0-50.314 22.641-50.314 50.314v69.615c0 35.354 28.66 64.014 64.014 64.014h31.046c-35.354 0-64.014-28.66-64.014-64.014z" fill="#f6a96c"/></g><g fill="#ea9b58"><path d="m189.352 227.961c-10.841 0-19.797-8.164-21.081-18.665-.757 2.239-1.174 4.635-1.174 7.13 0 12.291 9.964 22.254 22.254 22.254s22.254-9.964 22.254-22.254c0-2.495-.417-4.891-1.174-7.131-1.283 10.501-10.238 18.666-21.079 18.666z"/><path d="m302.732 209.294c-1.283 10.501-10.238 18.666-21.08 18.666s-19.797-8.165-21.08-18.666c-.757 2.239-1.174 4.636-1.174 7.131 0 12.291 9.964 22.254 22.254 22.254 12.291 0 22.254-9.964 22.254-22.254.001-2.494-.416-4.891-1.174-7.131z"/></g><path d="m281.165 250.361h-91.326c-2.363 2.592-3.816 6.028-3.816 9.812v6.649c0 11.955 9.692 21.647 21.647 21.647h55.664c11.955 0 21.647-9.692 21.647-21.647v-6.649c0-3.784-1.453-7.22-3.816-9.812z" fill="#fb2b3a"/><path d="m281.165 250.361c-2.668-2.927-6.498-4.774-10.77-4.774h-69.786c-4.272 0-8.103 1.848-10.77 4.774l10.123 17.354c.68 1.166 2.366 1.166 3.046 0l6.385-10.945c.316-.542.896-.875 1.523-.875h49.171c.627 0 1.207.333 1.523.875l6.385 10.945c.68 1.166 2.366 1.166 3.046 0z" fill="#fff"/><g><circle cx="189.351" cy="206.707" fill="#fff" r="22.254"/><path d="m188 206.707c0-6.171 2.521-11.746 6.579-15.776l-13.233-4.988c-8.334 3.215-14.249 11.297-14.249 20.765 0 12.291 9.964 22.254 22.254 22.254 3.778 0 7.335-.945 10.451-2.606-7.021-3.744-11.802-11.137-11.802-19.649z" fill="#fbf0ff"/><circle cx="281.652" cy="206.707" fill="#fff" r="22.254"/><path d="m291.953 186.981c-.742-.388-1.51-.734-2.298-1.038l-27.723 10.451c-1.616 3.084-2.535 6.59-2.535 10.313 0 12.291 9.964 22.254 22.254 22.254 3.718 0 7.22-.917 10.301-2.529-7.102-3.717-11.952-11.153-11.952-19.725 0-8.573 4.85-16.009 11.953-19.726z" fill="#fbf0ff"/></g><g fill="#e41f2d"><circle cx="189.351" cy="206.707" r="7.5"/><circle cx="281.652" cy="206.707" r="7.5"/></g><g><g><path d="m304.446 180.367-47.861 18.043c-2.232.841-4.617-.808-4.617-3.194v-11.26c0-1.421.88-2.693 2.209-3.194l47.861-18.043c2.232-.841 4.617.808 4.617 3.194v11.26c0 1.421-.88 2.693-2.209 3.194z" fill="#bb5d4c"/></g><path d="m166.558 180.367 47.861 18.043c2.232.841 4.617-.808 4.617-3.194v-11.26c0-1.421-.88-2.693-2.209-3.194l-47.861-18.043c-2.232-.841-4.617.808-4.617 3.194v11.26c0 1.421.88 2.693 2.209 3.194z" fill="#bb5d4c"/></g><path d="m228.866 190.473-12.029 32.474c-1.446 3.904 1.442 8.053 5.605 8.053h24.058c4.163 0 7.051-4.149 5.605-8.053l-12.029-32.474c-.868-2.345-3.104-3.901-5.605-3.901-2.5 0-4.736 1.556-5.605 3.901z" fill="#ea9b58"/><path d="m207.67 288.469h55.664c.94 0 1.859-.08 2.768-.196-1.655-9.361-9.811-16.477-19.647-16.477-4.047 0-7.806 1.212-10.952 3.281-3.146-2.069-6.906-3.281-10.952-3.281-9.836 0-17.992 7.116-19.647 16.477.907.115 1.826.196 2.766.196z" fill="#e41f2d"/><path d="m234.386 388.155-24.092-16.2c-1.841-1.238-4.028.995-2.752 2.81l26.324 37.444c.797 1.133 2.476 1.133 3.272 0l26.324-37.444c1.276-1.815-.911-4.048-2.752-2.81l-24.092 16.2c-.675.454-1.558.454-2.232 0z" fill="#bb5d4c"/></g><path d="m477.513 132h-49.752c-7.448 0-13.487 6.038-13.487 13.487 0 7.448 6.038 13.487 13.487 13.487h49.752c7.448 0 13.487-6.038 13.487-13.487 0-7.449-6.038-13.487-13.487-13.487z" fill="#8795de"/></g></svg>