<?xml version="1.0" encoding="iso-8859-1"?>
<!-- Generator: Adobe Illustrator 19.0.0, SVG Export Plug-In . SVG Version: 6.00 Build 0)  -->
<svg version="1.1" id="Layer_1" xmlns="http://www.w3.org/2000/svg" xmlns:xlink="http://www.w3.org/1999/xlink" x="0px" y="0px"
	 viewBox="0 0 491.52 491.52" style="enable-background:new 0 0 491.52 491.52;" xml:space="preserve">
<circle style="fill:#FCD462;" cx="245.76" cy="245.76" r="245.76"/>
<circle style="fill:#F6C358;" cx="245.76" cy="245.76" r="204.759"/>
<path style="fill:#DC8744;" d="M237.313,405.105v-28.063c-35.134-3.582-66.67-17.551-94.576-41.891l28.063-33.444
	c21.524,18.709,43.675,29.846,66.513,33.444v-74.585c-28.97-6.914-50.182-16.018-63.635-27.297
	c-13.453-11.278-20.179-28.001-20.179-50.166s7.728-40.296,23.245-54.406c15.518-14.094,35.697-21.775,60.569-23.057V86.415h24.59
	v19.6c28.188,2.065,54.844,11.67,79.966,28.845l-24.997,35.368c-16.926-12.045-35.228-19.475-54.969-22.307v72.27h1.158
	c29.471,6.93,51.121,16.284,64.949,28.063c13.86,11.795,20.774,28.908,20.774,51.324c0,22.432-7.947,40.703-23.84,54.781
	c-15.893,14.11-36.886,21.79-63.04,23.073v27.672H237.313z M210.188,156.964c-6.539,5.757-9.792,12.937-9.792,21.524
	c0,8.588,2.565,15.377,7.696,20.367c5.1,5.006,14.861,9.808,29.221,14.423v-66.513C225.769,147.797,216.727,151.191,210.188,156.964
	z M291.124,325.53c7.164-5.882,10.762-13.312,10.762-22.291c0-8.963-2.816-16.081-8.447-21.337
	c-5.663-5.256-16.175-10.183-31.536-14.798v69.188C274.199,335.026,283.928,331.428,291.124,325.53z"/>
<g>
</g>
<g>
</g>
<g>
</g>
<g>
</g>
<g>
</g>
<g>
</g>
<g>
</g>
<g>
</g>
<g>
</g>
<g>
</g>
<g>
</g>
<g>
</g>
<g>
</g>
<g>
</g>
<g>
</g>
</svg>
