<svg id="Capa_1" enable-background="new 0 0 512 512" height="512" viewBox="0 0 512 512" width="512" xmlns="http://www.w3.org/2000/svg"><g><path d="m256 22c-135.31 0-245 109.69-245 245 0 71.054 30.259 135.031 78.579 179.782l1-.438v-136.564c0-24.894 20.253-45.146 45.146-45.146h263.189c12.41 0 22.506 10.096 22.506 22.505v159.205l1 .438c48.321-44.751 78.58-108.728 78.58-179.782 0-135.31-109.69-245-245-245z" fill="#7e5fc9"/><g><path d="m158.189 143.864h9.745v-15.748c0-28.674 23.328-52.002 52.002-52.002 13.132 0 25.697 4.97 35.382 13.995l.682.635.682-.635c9.685-9.024 22.25-13.995 35.382-13.995 28.674 0 52.002 23.328 52.002 52.002v15.748h9.745c5.267 0 10.13 1.76 14.036 4.719v-56.42c0-37.463-23.785-69.358-57.073-81.444-1.604-.583-3.375.284-3.894 1.91l-2.648 8.289c-.569 1.781-2.611 2.614-4.263 1.737l-41.622-22.072c-1.467-.778-3.225-.777-4.692.003l-41.596 22.135c-1.606.855-3.598.094-4.225-1.614l-3.032-8.254c-.329-1.683-2.087-2.676-3.698-2.088-33.223 12.12-56.95 43.982-56.95 81.399v56.419c3.906-2.959 8.768-4.719 14.035-4.719z" fill="#5d3f9a"/><path d="m158.19 142.864h8.745v-14.748c0-10.463 3.085-20.235 8.373-28.475v-7.477c0-28.295 13.574-53.406 34.556-69.213-.898-.246-1.68-.889-2.03-1.844l-3.032-8.254c-.329-1.683-2.087-2.676-3.698-2.088-33.223 12.12-56.95 43.982-56.95 81.399v55.172c3.964-2.813 8.805-4.472 14.036-4.472z" fill="#4b3087"/><g><g fill="#5d3f9a"><path d="m144.064 263.634h-8.339c-25.486 0-46.146 20.66-46.146 46.146v137.002c37.181 34.435 85.059 57.475 138.094 63.585l1-.893v-122.76z"/><path d="m398.915 263.634h-30.979l-84.61 123.079v122.76l1 .893c53.035-6.11 100.913-29.15 138.095-63.585v-159.641c0-12.982-10.524-23.506-23.506-23.506z"/></g><path d="m142.851 263.634h-7.125c-25.486 0-46.146 20.66-46.146 46.146v137.002c12.686 11.749 26.624 22.161 41.579 31.039v-168.041c0-14.971 7.135-28.271 18.184-36.702z" fill="#4b3087"/><g fill="#fb2b3a"><path d="m228.674 267.626c-32.853-2.804-58.965-29.606-60.652-62.761h-9.833c-11.757 0-21.5-8.759-23.064-20.092l-42.565-8.351c-4.083-.801-7.078 3.759-4.721 7.188l140.835 204.868z"/><path d="m419.44 176.423-42.565 8.35c-1.564 11.334-11.308 20.092-23.064 20.092h-9.832c-1.687 33.155-27.799 59.957-60.653 62.761v120.852l140.835-204.868c2.357-3.428-.638-7.988-4.721-7.187z"/></g><path d="m227.674 341.918-108.828-158.308c-.482-.701-.73-1.448-.801-2.188l-25.486-5c-4.083-.801-7.078 3.759-4.721 7.188l139.835 203.413v-45.105z" fill="#e41f2d"/><path d="m277.631 267.884h-43.262c-2.26 0-4.493-.115-6.695-.337v242.819c9.295 1.071 18.743 1.634 28.326 1.634s19.031-.563 28.326-1.633v-242.82c-2.202.222-4.435.337-6.695.337z" fill="#fbf0ff"/><path d="m248.5 267.884v243.991c2.492.075 4.99.125 7.5.125s5.008-.05 7.5-.125v-243.991z" fill="#eadeff"/><path d="m306.233 261.402c-8.668 4.152-18.367 6.482-28.602 6.482h-43.262c-10.235 0-19.935-2.33-28.602-6.482l-17.574 30.439c-1.787 3.096.447 6.966 4.022 6.966h127.57c3.575 0 5.809-3.87 4.022-6.966z" fill="#fff"/><path d="m234.686 267.884 21.314 36.918 21.314-36.918z" fill="#d3c4f7"/><g fill="#fff"><path d="m167.936 201.451-.001-58.586h-9.745c-13.415 0-24.29 10.875-24.29 24.29v14.422c0 13.415 10.875 24.29 24.29 24.29h9.909c-.097-1.463-.163-2.931-.163-4.416z"/><path d="m353.81 142.864h-9.745v58.586c0 1.485-.067 2.954-.163 4.415h9.908c13.415 0 24.29-10.875 24.29-24.29v-14.422c0-13.414-10.875-24.289-24.29-24.289z"/></g><path d="m292.063 75.114c-13.899 0-26.585 5.43-36.063 14.263-9.478-8.833-22.164-14.263-36.063-14.263-29.151 0-53.002 23.851-53.002 53.002v73.335c0 37.243 30.191 67.434 67.434 67.434h43.262c37.243 0 67.434-30.191 67.434-67.434v-73.335c0-29.151-23.851-53.002-53.002-53.002z" fill="#fbf0ff"/><g><g><path d="m198 201.451v-73.334c0-23.746 15.828-43.972 37.454-50.657-4.913-1.518-10.122-2.345-15.517-2.345-29.151 0-53.002 23.851-53.002 53.002v73.334c0 37.243 30.191 67.434 67.434 67.434h31.065c-37.243 0-67.434-30.192-67.434-67.434z" fill="#eadeff"/></g></g><g fill="#d3c4f7"><path d="m207.384 190.717c-11.403 0-20.841-8.551-22.254-19.575-.768 2.319-1.189 4.795-1.189 7.371 0 12.947 10.496 23.443 23.443 23.443s23.443-10.496 23.443-23.443c0-2.576-.422-5.053-1.189-7.372-1.414 11.026-10.851 19.576-22.254 19.576z"/><path d="m326.87 171.142c-1.413 11.025-10.851 19.576-22.254 19.576s-20.841-8.551-22.254-19.575c-.768 2.319-1.189 4.795-1.189 7.371 0 12.947 10.496 23.443 23.443 23.443s23.443-10.496 23.443-23.443c0-2.577-.421-5.054-1.189-7.372z"/></g><path d="m304.103 214.261h-96.206c-2.489 2.731-4.02 6.35-4.02 10.336v7.004c0 12.594 10.209 22.804 22.803 22.804h58.638c12.594 0 22.804-10.209 22.804-22.804v-7.004c0-3.986-1.53-7.605-4.019-10.336z" fill="#fb2b3a"/><path d="m304.103 214.261c-2.81-3.083-6.846-5.029-11.346-5.029h-73.514c-4.5 0-8.536 1.946-11.346 5.029l10.664 18.281c.717 1.229 2.492 1.229 3.209 0l6.726-11.53c.333-.571.944-.922 1.604-.922h51.798c.661 0 1.272.351 1.604.922l6.726 11.53c.717 1.229 2.492 1.229 3.209 0z" fill="#fff"/><g><circle cx="207.384" cy="168.274" fill="#fff" r="23.443"/><path d="m196 168.274c0-10.862 7.389-19.995 17.414-22.656-1.924-.511-3.945-.787-6.03-.787-12.947 0-23.443 10.496-23.443 23.443s10.496 23.443 23.443 23.443c2.085 0 4.105-.276 6.03-.786-10.025-2.661-17.414-11.794-17.414-22.657z" fill="#fbf0ff"/><circle cx="304.616" cy="168.274" fill="#fff" r="23.443"/></g><g fill="#e41f2d"><circle cx="207.384" cy="168.274" r="7.326"/><circle cx="304.616" cy="168.274" r="7.326"/></g><path d="m303.056 282.872-45.246 19.153c-1.157.49-2.463.49-3.62 0l-45.246-19.153c-3.062-1.296-6.454.951-6.454 4.276v45.663c0 3.325 3.392 5.573 6.454 4.276l45.246-19.153c1.157-.49 2.463-.49 3.62 0l45.246 19.153c3.062 1.296 6.454-.951 6.454-4.276v-45.663c0-3.325-3.392-5.572-6.454-4.276z" fill="#a231aa"/><g><path d="m223 288.822-14.056-5.95c-3.062-1.296-6.454.952-6.454 4.276v45.663c0 3.325 3.392 5.573 6.454 4.276l14.056-5.95z" fill="#902592"/></g><path d="m264.031 325.182h-16.061c-2.761 0-5-2.239-5-5v-20.405c0-2.761 2.239-5 5-5h16.061c2.761 0 5 2.239 5 5v20.405c0 2.762-2.239 5-5 5z" fill="#b342bc"/><g><g><path d="m328.628 140.528-50.418 19.007c-2.351.886-4.864-.851-4.864-3.364v-11.861c0-1.496.927-2.836 2.327-3.364l50.418-19.007c2.351-.886 4.864.851 4.864 3.364v11.861c0 1.496-.927 2.836-2.327 3.364z" fill="#5d3f9a"/></g><path d="m183.373 140.528 50.418 19.007c2.351.886 4.864-.851 4.864-3.364v-11.861c0-1.496-.927-2.836-2.327-3.364l-50.418-19.007c-2.351-.886-4.864.851-4.864 3.364v11.861c0 1.496.926 2.836 2.327 3.364z" fill="#5d3f9a"/></g><path d="m249.01 158.287-12.671 34.209c-1.523 4.112 1.519 8.483 5.904 8.483h25.343c4.385 0 7.427-4.371 5.904-8.483l-12.671-34.209c-.915-2.47-3.27-4.109-5.904-4.109-2.635-.001-4.99 1.639-5.905 4.109z" fill="#eadeff"/><path d="m250.451 192.496 11.519-31.098-1.152-3.111c-.915-2.47-3.27-4.109-5.904-4.109s-4.989 1.639-5.904 4.109l-12.672 34.209c-1.523 4.112 1.519 8.483 5.904 8.483h14.113c-4.385 0-7.427-4.371-5.904-8.483z" fill="#d3c4f7"/><path d="m226.681 254.405h58.638c.99 0 1.959-.085 2.915-.207-1.744-9.861-10.336-17.357-20.697-17.357-4.263 0-8.223 1.277-11.538 3.456-3.314-2.179-7.275-3.456-11.538-3.456-10.361 0-18.953 7.496-20.697 17.357.959.122 1.927.207 2.917.207z" fill="#e41f2d"/></g><g><g><g><path d="m392.212 399.296v63.261l8.015-5.389c.641-.431 1.387-.659 2.158-.659.772 0 1.519.228 2.159.659l8.016 5.389v-63.261c-3.327.556-6.73.852-10.174.852-3.443 0-6.847-.296-10.174-.852z" fill="#e8b800"/><path d="m399.67 456.338-34.777 23.382c-3.989 2.682-2.091 8.909 2.716 8.909h69.555c4.807 0 6.706-6.227 2.716-8.909l-34.777-23.382c-1.643-1.105-3.79-1.105-5.433 0z" fill="#fed402"/><path d="m385.184 479.72 16.815-11.305c-.897-1.323-1.473-2.875-1.583-4.57-.211-3.26 1.22-6.19 3.539-8.066-1.417-.483-3.003-.303-4.285.559l-34.778 23.382c-3.989 2.682-2.091 8.909 2.717 8.909h20.291c-4.807 0-6.706-6.227-2.716-8.909z" fill="#fac600"/></g><path d="m410.283 396.283c-5.092 0-9.538 3.843-9.868 8.924-.361 5.568 4.049 10.197 9.54 10.197-5.28 0-9.561 4.281-9.561 9.561s4.28 9.561 9.561 9.561c-5.28 0-9.561 4.281-9.561 9.561s4.28 9.561 9.561 9.561c-5.491 0-9.901 4.629-9.54 10.197.329 5.082 4.775 8.924 9.868 8.924h31.762c6.509 0 11.785-5.276 11.785-11.785v-52.915c0-6.509-5.276-11.785-11.785-11.785h-31.762z" fill="#fbf0ff"/><path d="m432.785 396.283h-6.165c-7.283 3.107-15.487 4.865-24.233 4.865-.235 0-.466-.015-.701-.017-.716 1.211-1.174 2.588-1.27 4.077-.361 5.568 4.049 10.197 9.54 10.197-5.28 0-9.561 4.281-9.561 9.561s4.281 9.561 9.561 9.561c-5.28 0-9.561 4.281-9.561 9.561s4.281 9.561 9.561 9.561c-5.491 0-9.901 4.629-9.54 10.197.329 5.082 4.775 8.924 9.867 8.924h22.502c-6.509 0-11.785-5.276-11.785-11.785v-52.915c0-6.51 5.276-11.787 11.785-11.787z" fill="#eadeff"/></g><path d="m402.386 401.148c-34.837 0-61.092-27.857-54.633-57.966l10.707-49.91c.473-2.206 2.423-3.781 4.678-3.781h78.495c2.256 0 4.205 1.576 4.678 3.781l10.707 49.91c6.46 30.11-19.795 57.966-54.632 57.966z" fill="#fed402"/><path d="m378.161 343.182 10.707-49.91c.473-2.206 2.423-3.781 4.678-3.781h-30.407c-2.256 0-4.205 1.576-4.678 3.781l-10.707 49.91c-6.459 30.109 19.796 57.966 54.632 57.966 5.296 0 10.389-.652 15.203-1.85-26.855-6.679-44.905-30.583-39.428-56.116z" fill="#fac600"/><g fill="#fff"><path d="m373.675 325.849 7.768 11.718c.649.978.649 2.25 0 3.228l-7.768 11.718c-1.155 1.743-3.714 1.743-4.87 0l-7.768-11.718c-.649-.978-.649-2.25 0-3.228l7.768-11.718c1.156-1.743 3.715-1.743 4.87 0z"/><path d="m404.821 325.849 7.768 11.718c.649.978.649 2.25 0 3.228l-7.768 11.718c-1.155 1.743-3.714 1.743-4.87 0l-7.768-11.718c-.649-.978-.649-2.25 0-3.228l7.768-11.718c1.156-1.743 3.715-1.743 4.87 0z"/><path d="m435.967 325.849 7.768 11.718c.649.978.649 2.25 0 3.228l-7.768 11.718c-1.155 1.743-3.714 1.743-4.87 0l-7.768-11.718c-.649-.978-.649-2.25 0-3.228l7.768-11.718c1.156-1.743 3.715-1.743 4.87 0z"/></g></g></g></g></svg>