<svg id="Capa_1" enable-background="new 0 0 512 512" height="512" viewBox="0 0 512 512" width="512" xmlns="http://www.w3.org/2000/svg"><g><path d="m256 22c-135.31 0-245 109.69-245 245 0 66.749 26.706 127.252 70 171.44l1-.409v-34.233c0-25.25 20.542-45.793 45.792-45.793h256.415c25.25 0 45.793 20.542 45.793 45.793v34.233l1 .409c43.294-44.188 70-104.691 70-171.44 0-135.31-109.69-245-245-245z" fill="#c35ac7"/><path d="m431.5 256v-78.5c0-4.142-3.358-7.5-7.5-7.5s-7.5 3.358-7.5 7.5v78.5z" fill="#d3c4f7"/><path d="m442 275v-15c0-2.761-2.239-5-5-5h-26c-2.761 0-5 2.239-5 5v15z" fill="#fff"/><path d="m426 255h-15c-2.761 0-5 2.239-5 5v15h15v-15c0-2.761 2.239-5 5-5z" fill="#fbf0ff"/><path d="m374.664 20.719c-76.687-27.626-160.641-27.626-237.328 0-8.273 2.98-12.236 12.37-8.591 20.373 8.645 18.983 17.552 40.323 26.548 63.369 17.524-21.617 44.278-35.461 74.209-35.461h52.996c29.931 0 56.685 13.844 74.209 35.461 8.996-23.046 17.903-44.386 26.548-63.369 3.645-8.002-.318-17.392-8.591-20.373z" fill="#fbf0ff"/><path d="m194.414 74.581c-7.203-17.982-14.328-34.784-21.283-50.055-2.313-5.079-1.554-10.711 1.419-14.915-12.55 3.002-24.975 6.699-37.214 11.108-8.273 2.98-12.236 12.37-8.591 20.373 8.505 18.675 17.263 39.632 26.111 62.25 10.415-12.697 24.005-22.687 39.558-28.761z" fill="#eadeff"/><path d="m282.498 68h-52.996c-53.297 0-96.502 43.205-96.502 96.502v98.176c0 44.913 36.409 81.322 81.322 81.322h83.356c44.913 0 81.322-36.409 81.322-81.322v-98.176c0-53.297-43.205-96.502-96.502-96.502z" fill="#fb2b3a"/><g fill="#e41f2d"><path d="m150.91 195h5.806v-14.458c0-5.204 3.994-9.54 9.181-9.96 5.833-.473 11.539-1.118 17.103-1.913v-4.166c0-53.298 43.205-96.503 96.502-96.503h-50c-53.297 0-96.502 43.205-96.502 96.502v35.617c5.198-3.241 11.334-5.119 17.91-5.119z"/><path d="m199.95 324.004c-19.726-11.867-34.48-31.156-40.395-54.004h-8.645c-6.553 0-12.668-1.864-17.854-5.083.949 34.997 23.992 64.462 55.698 74.958z"/></g><path d="m431 403.798c0-25.843-20.95-46.793-46.793-46.793h-256.414c-25.843 0-46.793 20.95-46.793 46.793v34.642c44.469 45.386 106.44 73.56 175 73.56s130.531-28.174 175-73.56z" fill="#fbf0ff"/><path d="m131 403.798c0-25.843 20.95-46.793 46.793-46.793h-50c-25.843 0-46.793 20.95-46.793 46.793v34.642c14.848 15.154 31.656 28.376 50 39.285z" fill="#eadeff"/><g fill="#fff"><path d="m225.21 385.365c-2.675-2.617-4.209-6.265-4.209-10.008v-43.224c-7.245-2.132-14.11-5.161-20.453-8.976l-41.988 59.527c-2.336 3.312.033 7.882 4.086 7.882h67.881z"/><path d="m353.44 382.684-41.988-59.526c-6.343 3.815-13.208 6.844-20.453 8.976v43.224c0 3.743-1.534 7.391-4.21 10.008l-5.316 5.201h67.88c4.055-.001 6.424-4.571 4.087-7.883z"/></g><path d="m266.187 335.704h-20.375c-8.978 0-17.645-1.354-25.812-3.861v43.515c0 4.035 1.626 7.901 4.511 10.723l27.993 27.384c1.943 1.901 5.05 1.901 6.993 0l27.993-27.384c2.885-2.822 4.511-6.687 4.511-10.723v-43.515c-8.168 2.507-16.835 3.861-25.814 3.861z" fill="#8bc727"/><path d="m252 364.468v-27.764h-6.188c-8.977 0-17.641-1.333-25.812-3.802v42.457c0 4.035 1.626 7.901 4.511 10.723l27.993 27.384c1.943 1.901 5.05 1.901 6.993 0l18.07-17.677-21.056-20.598c-2.885-2.823-4.511-6.688-4.511-10.723z" fill="#81b823"/><g fill="#8bc727"><path d="m157.716 247.607v-52.607h-6.805c-18.728 0-33.91 15.182-33.91 33.91v7.179c0 18.728 15.182 33.91 33.91 33.91h9.693c-1.882-7.152-2.888-14.656-2.888-22.392z"/><path d="m361.09 195h-6.805v52.607c0 7.735-1.006 15.24-2.887 22.393h9.693c18.728 0 33.91-15.182 33.91-33.91v-7.179c-.001-18.729-15.183-33.911-33.911-33.911z"/></g><path d="m264.921 137.868c-20.439 16.952-56.471 29.264-99.024 32.713-5.187.42-9.181 4.757-9.181 9.96v67.066c0 49.206 39.89 89.096 89.096 89.096h20.375c49.207 0 89.096-39.89 89.096-89.096v-69.062c0-4.73-3.314-8.827-7.946-9.782-29.922-6.171-54.398-17.037-69.13-30.597-3.733-3.436-9.38-3.538-13.286-.298z" fill="#97d729"/><g><g><path d="m172.438 200.415c0 20.529 12.76 37.17 28.5 37.17s28.5-16.641 28.5-37.17z" fill="#8bc727"/></g><g><path d="m282.562 200.415c0 20.529 12.76 37.17 28.5 37.17s28.5-16.641 28.5-37.17z" fill="#8bc727"/></g></g><path d="m285.64 298.941h-59.28c-9.548 0-17.36-7.812-17.36-17.36 0-9.548 7.812-17.36 17.36-17.36h59.279c9.548 0 17.36 7.812 17.36 17.36.001 9.548-7.811 17.36-17.359 17.36z" fill="#fd8087"/><path d="m240 281.581c0-9.548 7.812-17.36 17.36-17.36h-31c-9.548 0-17.36 7.812-17.36 17.36s7.812 17.36 17.36 17.36h31c-9.548 0-17.36-7.812-17.36-17.36z" fill="#fe646f"/><path d="m249.956 208.298-12.971 35.018c-1.559 4.209 1.555 8.684 6.044 8.684h25.942c4.489 0 7.603-4.474 6.044-8.684l-12.971-35.018c-.936-2.528-3.348-4.206-6.044-4.206-2.696 0-5.107 1.678-6.044 4.206z" fill="#8bc727"/><g><g><path d="m174.979 196.864c-1.79 0-3.191 1.56-2.988 3.339 1.657 14.519 13.985 25.797 28.947 25.797 14.963 0 27.291-11.278 28.947-25.798.203-1.779-1.198-3.339-2.988-3.339h-51.918z" fill="#fff"/></g><g><path d="m285.103 196.864c-1.79 0-3.191 1.56-2.988 3.339 1.656 14.519 13.984 25.797 28.947 25.797s27.291-11.278 28.947-25.798c.203-1.779-1.198-3.339-2.988-3.339h-51.918z" fill="#fff"/></g></g><path d="m275.187 27.741h-8.741c-1.105 0-2-.895-2-2v-8.741c0-1.105-.895-2-2-2h-12.894c-1.105 0-2 .895-2 2v8.741c0 1.105-.895 2-2 2h-8.741c-1.105 0-2 .895-2 2v12.894c0 1.105.895 2 2 2h8.741c1.105 0 2 .895 2 2v8.741c0 1.105.895 2 2 2h12.894c1.105 0 2-.895 2-2v-8.741c0-1.105.895-2 2-2h8.741c1.105 0 2-.895 2-2v-12.894c0-1.105-.895-2-2-2z" fill="#d3c4f7"/><g fill="#fd8087"><path d="m188 199c0 7.18 5.82 13 13 13s13-5.82 13-13c0-.729-.075-1.44-.19-2.136h-25.62c-.115.696-.19 1.407-.19 2.136z"/><path d="m298 199c0 7.18 5.82 13 13 13s13-5.82 13-13c0-.729-.075-1.44-.19-2.136h-25.62c-.115.696-.19 1.407-.19 2.136z"/></g><circle cx="256" cy="449.5" fill="#d3c4f7" r="13.5"/><g><path d="m454 376v-97c0-2.761-2.239-5-5-5h-50c-2.761 0-5 2.239-5 5v97z" fill="#d3c4f7"/></g><g fill="#eadeff"><path d="m411 342h26v34h-26z"/><path d="m411 396h26v51h-26z"/></g><path d="m406 274h36v55h-36z" fill="#fd8087"/><path d="m406 274h15v54h-15z" fill="#fe646f"/><path d="m460 397h-72c-2.761 0-5-2.239-5-5v-12c0-2.761 2.239-5 5-5h72c2.761 0 5 2.239 5 5v12c0 2.761-2.239 5-5 5z" fill="#fff"/><path d="m445 468h-42c-2.761 0-5-2.239-5-5v-12c0-2.761 2.239-5 5-5h42c2.761 0 5 2.239 5 5v12c0 2.761-2.239 5-5 5z" fill="#d3c4f7"/><path d="m429.278 360.451c-5.23 0-9.796 3.946-10.134 9.165-.37 5.719 4.158 10.472 9.797 10.472-5.423 0-9.819 4.396-9.819 9.819s4.396 9.819 9.819 9.819c-5.423 0-9.819 4.396-9.819 9.819s4.396 9.819 9.819 9.819c-5.639 0-10.168 4.754-9.797 10.472.338 5.219 4.904 9.165 10.134 9.165h32.619c6.684 0 12.103-5.419 12.103-12.103v-54.343c0-6.684-5.419-12.103-12.103-12.103h-32.619z" fill="#97d729"/><path d="m444 426.897v-54.343c0-6.684 5.419-12.103 12.103-12.103h-26.824c-5.23 0-9.796 3.946-10.134 9.165-.37 5.719 4.158 10.472 9.797 10.472-5.423 0-9.819 4.396-9.819 9.819s4.396 9.819 9.819 9.819c-5.423 0-9.819 4.396-9.819 9.818s4.396 9.819 9.819 9.819c-5.639 0-10.168 4.754-9.797 10.472.338 5.219 4.904 9.165 10.134 9.165h26.824c-6.684 0-12.103-5.419-12.103-12.103z" fill="#8bc727"/><path d="m394 328h60v15h-60z" fill="#fff"/></g></svg>